<mxfile host="app.diagrams.net" modified="2024-07-22T19:09:08.754Z" agent="Mozilla/5.0 (Macintosh; Intel Mac OS X 10_15_7) AppleWebKit/537.36 (KHTML, like Gecko) Chrome/126.0.0.0 Safari/537.36" etag="EgsLmCDodSeISNJaFKDw" version="24.7.3" type="github">
  <diagram name="Страница — 1" id="gNsdggUAv6wqMfL3cF9R">
    <mxGraphModel dx="940" dy="866" grid="1" gridSize="10" guides="1" tooltips="1" connect="1" arrows="1" fold="1" page="1" pageScale="1" pageWidth="827" pageHeight="1169" math="0" shadow="0">
      <root>
        <mxCell id="0" />
        <mxCell id="1" parent="0" />
        <mxCell id="ET-WqSmqZq0KiV_rPKmN-1" value="&lt;font style=&quot;&quot;&gt;&lt;b style=&quot;&quot;&gt;&lt;font style=&quot;font-size: 15px;&quot;&gt;id&lt;/font&gt;&lt;/b&gt;&lt;span style=&quot;font-size: 14px;&quot;&gt;: INT&lt;/span&gt;&lt;/font&gt;&lt;div style=&quot;&quot;&gt;&lt;font style=&quot;&quot;&gt;&lt;b style=&quot;&quot;&gt;&lt;font style=&quot;font-size: 15px;&quot;&gt;title&lt;/font&gt;&lt;/b&gt;&lt;span style=&quot;font-size: 14px;&quot;&gt;: VARCHAR&lt;/span&gt;&lt;/font&gt;&lt;/div&gt;&lt;div style=&quot;&quot;&gt;&lt;font style=&quot;&quot;&gt;&lt;b style=&quot;&quot;&gt;&lt;font style=&quot;font-size: 15px;&quot;&gt;season&lt;/font&gt;&lt;/b&gt;&lt;span style=&quot;font-size: 14px;&quot;&gt;: INT&lt;/span&gt;&lt;/font&gt;&lt;/div&gt;&lt;div style=&quot;&quot;&gt;&lt;font style=&quot;font-size: 15px;&quot;&gt;&lt;b&gt;episode&lt;/b&gt;&lt;/font&gt;&lt;font style=&quot;font-size: 14px;&quot;&gt;: INT&lt;/font&gt;&lt;/div&gt;&lt;div style=&quot;&quot;&gt;&lt;font style=&quot;&quot;&gt;&lt;b style=&quot;&quot;&gt;&lt;font style=&quot;font-size: 15px;&quot;&gt;broadcast_date&lt;/font&gt;&lt;/b&gt;&lt;span style=&quot;font-size: 14px;&quot;&gt;: DATE&lt;/span&gt;&lt;/font&gt;&lt;/div&gt;&lt;div style=&quot;&quot;&gt;&lt;font style=&quot;&quot;&gt;&lt;b style=&quot;&quot;&gt;&lt;font style=&quot;font-size: 15px;&quot;&gt;youtube_url&lt;/font&gt;&lt;/b&gt;&lt;span style=&quot;font-size: 14px;&quot;&gt;: VARCHAR&lt;/span&gt;&lt;/font&gt;&lt;/div&gt;&lt;div style=&quot;&quot;&gt;&lt;font style=&quot;font-size: 15px;&quot;&gt;&lt;b&gt;image_url&lt;/b&gt;&lt;/font&gt;&lt;font style=&quot;font-size: 14px;&quot;&gt;: VARCHAR&lt;/font&gt;&lt;/div&gt;" style="whiteSpace=wrap;html=1;aspect=fixed;align=left;verticalAlign=top;" vertex="1" parent="1">
          <mxGeometry x="40" y="80" width="160" height="160" as="geometry" />
        </mxCell>
        <mxCell id="ET-WqSmqZq0KiV_rPKmN-2" value="&lt;font style=&quot;forced-color-adjust: none; color: rgb(0, 0, 0); font-family: Helvetica; font-size: 12px; font-style: normal; font-variant-ligatures: normal; font-variant-caps: normal; font-weight: 400; letter-spacing: normal; orphans: 2; text-indent: 0px; text-transform: none; widows: 2; word-spacing: 0px; -webkit-text-stroke-width: 0px; white-space: normal; background-color: rgb(251, 251, 251); text-decoration-thickness: initial; text-decoration-style: initial; text-decoration-color: initial;&quot;&gt;&lt;b style=&quot;forced-color-adjust: none;&quot;&gt;&lt;font style=&quot;forced-color-adjust: none; font-size: 15px;&quot;&gt;episode_id&lt;/font&gt;&lt;/b&gt;&lt;span style=&quot;forced-color-adjust: none; font-size: 14px;&quot;&gt;: INT&lt;/span&gt;&lt;/font&gt;&lt;div style=&quot;forced-color-adjust: none; color: rgb(0, 0, 0); font-family: Helvetica; font-style: normal; font-variant-ligatures: normal; font-variant-caps: normal; letter-spacing: normal; orphans: 2; text-indent: 0px; text-transform: none; widows: 2; word-spacing: 0px; -webkit-text-stroke-width: 0px; white-space: normal; background-color: rgb(251, 251, 251); text-decoration-thickness: initial; text-decoration-style: initial; text-decoration-color: initial;&quot;&gt;&lt;font style=&quot;forced-color-adjust: none;&quot;&gt;&lt;span style=&quot;forced-color-adjust: none; font-size: 15px;&quot;&gt;&lt;b&gt;color_id&lt;/b&gt;&lt;/span&gt;&lt;span style=&quot;font-size: 14px; font-weight: 400; forced-color-adjust: none;&quot;&gt;: INT&lt;/span&gt;&lt;/font&gt;&lt;/div&gt;&lt;div style=&quot;forced-color-adjust: none; color: rgb(0, 0, 0); font-family: Helvetica; font-style: normal; font-variant-ligatures: normal; font-variant-caps: normal; letter-spacing: normal; orphans: 2; text-indent: 0px; text-transform: none; widows: 2; word-spacing: 0px; -webkit-text-stroke-width: 0px; white-space: normal; background-color: rgb(251, 251, 251); text-decoration-thickness: initial; text-decoration-style: initial; text-decoration-color: initial;&quot;&gt;&lt;font style=&quot;forced-color-adjust: none;&quot;&gt;&lt;span style=&quot;font-size: 14px; font-weight: 400; forced-color-adjust: none;&quot;&gt;&lt;hr&gt;&lt;/span&gt;&lt;/font&gt;&lt;/div&gt;&lt;div style=&quot;forced-color-adjust: none; color: rgb(0, 0, 0); font-family: Helvetica; font-style: normal; font-variant-ligatures: normal; font-variant-caps: normal; letter-spacing: normal; orphans: 2; text-indent: 0px; text-transform: none; widows: 2; word-spacing: 0px; -webkit-text-stroke-width: 0px; white-space: normal; background-color: rgb(251, 251, 251); text-decoration-thickness: initial; text-decoration-style: initial; text-decoration-color: initial;&quot;&gt;&lt;font style=&quot;forced-color-adjust: none;&quot;&gt;&lt;span style=&quot;forced-color-adjust: none;&quot;&gt;&lt;span style=&quot;font-size: 15px;&quot;&gt;&lt;b&gt;PK&lt;/b&gt;(&lt;/span&gt;&lt;span style=&quot;font-size: 14px;&quot;&gt;episode_id, color_id)&lt;/span&gt;&lt;/span&gt;&lt;/font&gt;&lt;/div&gt;&lt;div style=&quot;forced-color-adjust: none; color: rgb(0, 0, 0); font-family: Helvetica; font-style: normal; font-variant-ligatures: normal; font-variant-caps: normal; letter-spacing: normal; orphans: 2; text-indent: 0px; text-transform: none; widows: 2; word-spacing: 0px; -webkit-text-stroke-width: 0px; white-space: normal; background-color: rgb(251, 251, 251); text-decoration-thickness: initial; text-decoration-style: initial; text-decoration-color: initial;&quot;&gt;&lt;font style=&quot;forced-color-adjust: none;&quot;&gt;&lt;span style=&quot;forced-color-adjust: none;&quot;&gt;&lt;span style=&quot;font-size: 14px;&quot;&gt;&lt;b&gt;FK&lt;/b&gt;(episode_id)&lt;/span&gt;&lt;/span&gt;&lt;/font&gt;&lt;/div&gt;&lt;div style=&quot;forced-color-adjust: none; color: rgb(0, 0, 0); font-family: Helvetica; font-style: normal; font-variant-ligatures: normal; font-variant-caps: normal; letter-spacing: normal; orphans: 2; text-indent: 0px; text-transform: none; widows: 2; word-spacing: 0px; -webkit-text-stroke-width: 0px; white-space: normal; background-color: rgb(251, 251, 251); text-decoration-thickness: initial; text-decoration-style: initial; text-decoration-color: initial;&quot;&gt;&lt;font style=&quot;forced-color-adjust: none;&quot;&gt;&lt;span style=&quot;forced-color-adjust: none;&quot;&gt;&lt;span style=&quot;font-size: 14px;&quot;&gt;&lt;b&gt;FK&lt;/b&gt;(color_id)&lt;/span&gt;&lt;/span&gt;&lt;/font&gt;&lt;/div&gt;" style="whiteSpace=wrap;html=1;aspect=fixed;align=left;verticalAlign=top;" vertex="1" parent="1">
          <mxGeometry x="150" y="390" width="160" height="160" as="geometry" />
        </mxCell>
        <mxCell id="ET-WqSmqZq0KiV_rPKmN-3" value="&lt;div style=&quot;&quot;&gt;&lt;b&gt;&lt;font style=&quot;font-size: 15px;&quot;&gt;id&lt;/font&gt;&lt;/b&gt;&lt;span style=&quot;font-size: 14px;&quot;&gt;: INT&lt;/span&gt;&lt;/div&gt;&lt;div style=&quot;forced-color-adjust: none; color: rgb(0, 0, 0); font-family: Helvetica; font-style: normal; font-variant-ligatures: normal; font-variant-caps: normal; letter-spacing: normal; orphans: 2; text-indent: 0px; text-transform: none; widows: 2; word-spacing: 0px; -webkit-text-stroke-width: 0px; white-space: normal; background-color: rgb(251, 251, 251); text-decoration-thickness: initial; text-decoration-style: initial; text-decoration-color: initial;&quot;&gt;&lt;font style=&quot;forced-color-adjust: none;&quot;&gt;&lt;span style=&quot;forced-color-adjust: none; font-size: 15px;&quot;&gt;&lt;b&gt;name&lt;/b&gt;&lt;/span&gt;&lt;span style=&quot;font-size: 14px; font-weight: 400; forced-color-adjust: none;&quot;&gt;: VARCHAR&lt;/span&gt;&lt;/font&gt;&lt;/div&gt;&lt;div style=&quot;forced-color-adjust: none; color: rgb(0, 0, 0); font-family: Helvetica; font-size: 12px; font-style: normal; font-variant-ligatures: normal; font-variant-caps: normal; font-weight: 400; letter-spacing: normal; orphans: 2; text-indent: 0px; text-transform: none; widows: 2; word-spacing: 0px; -webkit-text-stroke-width: 0px; white-space: normal; background-color: rgb(251, 251, 251); text-decoration-thickness: initial; text-decoration-style: initial; text-decoration-color: initial;&quot;&gt;&lt;font style=&quot;forced-color-adjust: none;&quot;&gt;&lt;b style=&quot;forced-color-adjust: none;&quot;&gt;&lt;font style=&quot;forced-color-adjust: none; font-size: 15px;&quot;&gt;hex_value&lt;/font&gt;&lt;/b&gt;&lt;span style=&quot;forced-color-adjust: none; font-size: 14px;&quot;&gt;: VARCHAR&lt;/span&gt;&lt;/font&gt;&lt;/div&gt;" style="whiteSpace=wrap;html=1;aspect=fixed;verticalAlign=top;align=left;" vertex="1" parent="1">
          <mxGeometry x="280" y="80" width="160" height="160" as="geometry" />
        </mxCell>
        <mxCell id="ET-WqSmqZq0KiV_rPKmN-4" value="&lt;font style=&quot;forced-color-adjust: none; color: rgb(0, 0, 0); font-family: Helvetica; font-size: 12px; font-style: normal; font-variant-ligatures: normal; font-variant-caps: normal; font-weight: 400; letter-spacing: normal; orphans: 2; text-indent: 0px; text-transform: none; widows: 2; word-spacing: 0px; -webkit-text-stroke-width: 0px; white-space: normal; text-decoration-thickness: initial; text-decoration-style: initial; text-decoration-color: initial; background-color: rgb(251, 251, 251);&quot;&gt;&lt;b style=&quot;forced-color-adjust: none;&quot;&gt;&lt;font style=&quot;forced-color-adjust: none; font-size: 15px;&quot;&gt;episode_id&lt;/font&gt;&lt;/b&gt;&lt;span style=&quot;forced-color-adjust: none; font-size: 14px;&quot;&gt;: INT&lt;/span&gt;&lt;/font&gt;&lt;div style=&quot;forced-color-adjust: none; color: rgb(0, 0, 0); font-family: Helvetica; font-size: 12px; font-style: normal; font-variant-ligatures: normal; font-variant-caps: normal; font-weight: 400; letter-spacing: normal; orphans: 2; text-indent: 0px; text-transform: none; widows: 2; word-spacing: 0px; -webkit-text-stroke-width: 0px; white-space: normal; text-decoration-thickness: initial; text-decoration-style: initial; text-decoration-color: initial; background-color: rgb(251, 251, 251);&quot;&gt;&lt;font style=&quot;forced-color-adjust: none;&quot;&gt;&lt;span style=&quot;forced-color-adjust: none; font-size: 15px;&quot;&gt;&lt;b style=&quot;forced-color-adjust: none;&quot;&gt;feature_id&lt;/b&gt;&lt;/span&gt;&lt;span style=&quot;forced-color-adjust: none; font-size: 14px; font-weight: 400;&quot;&gt;: INT&lt;/span&gt;&lt;/font&gt;&lt;/div&gt;&lt;div style=&quot;forced-color-adjust: none; color: rgb(0, 0, 0); font-family: Helvetica; font-size: 12px; font-style: normal; font-variant-ligatures: normal; font-variant-caps: normal; font-weight: 400; letter-spacing: normal; orphans: 2; text-indent: 0px; text-transform: none; widows: 2; word-spacing: 0px; -webkit-text-stroke-width: 0px; white-space: normal; text-decoration-thickness: initial; text-decoration-style: initial; text-decoration-color: initial; background-color: rgb(251, 251, 251);&quot;&gt;&lt;font style=&quot;forced-color-adjust: none;&quot;&gt;&lt;span style=&quot;forced-color-adjust: none; font-size: 14px; font-weight: 400;&quot;&gt;&lt;hr style=&quot;forced-color-adjust: none;&quot;&gt;&lt;/span&gt;&lt;/font&gt;&lt;/div&gt;&lt;div style=&quot;forced-color-adjust: none; color: rgb(0, 0, 0); font-family: Helvetica; font-size: 12px; font-style: normal; font-variant-ligatures: normal; font-variant-caps: normal; font-weight: 400; letter-spacing: normal; orphans: 2; text-indent: 0px; text-transform: none; widows: 2; word-spacing: 0px; -webkit-text-stroke-width: 0px; white-space: normal; text-decoration-thickness: initial; text-decoration-style: initial; text-decoration-color: initial; background-color: rgb(251, 251, 251);&quot;&gt;&lt;font style=&quot;forced-color-adjust: none;&quot;&gt;&lt;span style=&quot;forced-color-adjust: none;&quot;&gt;&lt;span style=&quot;forced-color-adjust: none; font-size: 15px;&quot;&gt;&lt;b style=&quot;forced-color-adjust: none;&quot;&gt;PK&lt;/b&gt;(&lt;/span&gt;&lt;span style=&quot;forced-color-adjust: none; font-size: 14px;&quot;&gt;episode_id, feature_id)&lt;/span&gt;&lt;/span&gt;&lt;/font&gt;&lt;/div&gt;&lt;div style=&quot;forced-color-adjust: none; color: rgb(0, 0, 0); font-family: Helvetica; font-size: 12px; font-style: normal; font-variant-ligatures: normal; font-variant-caps: normal; font-weight: 400; letter-spacing: normal; orphans: 2; text-indent: 0px; text-transform: none; widows: 2; word-spacing: 0px; -webkit-text-stroke-width: 0px; white-space: normal; text-decoration-thickness: initial; text-decoration-style: initial; text-decoration-color: initial; background-color: rgb(251, 251, 251);&quot;&gt;&lt;font style=&quot;forced-color-adjust: none;&quot;&gt;&lt;span style=&quot;forced-color-adjust: none;&quot;&gt;&lt;span style=&quot;forced-color-adjust: none; font-size: 14px;&quot;&gt;&lt;b style=&quot;forced-color-adjust: none;&quot;&gt;FK&lt;/b&gt;(episode_id)&lt;/span&gt;&lt;/span&gt;&lt;/font&gt;&lt;/div&gt;&lt;div style=&quot;forced-color-adjust: none; color: rgb(0, 0, 0); font-family: Helvetica; font-size: 12px; font-style: normal; font-variant-ligatures: normal; font-variant-caps: normal; font-weight: 400; letter-spacing: normal; orphans: 2; text-indent: 0px; text-transform: none; widows: 2; word-spacing: 0px; -webkit-text-stroke-width: 0px; white-space: normal; text-decoration-thickness: initial; text-decoration-style: initial; text-decoration-color: initial; background-color: rgb(251, 251, 251);&quot;&gt;&lt;font style=&quot;forced-color-adjust: none;&quot;&gt;&lt;span style=&quot;forced-color-adjust: none;&quot;&gt;&lt;span style=&quot;forced-color-adjust: none; font-size: 14px;&quot;&gt;&lt;b style=&quot;forced-color-adjust: none;&quot;&gt;FK&lt;/b&gt;(feature_id)&lt;/span&gt;&lt;/span&gt;&lt;/font&gt;&lt;/div&gt;" style="whiteSpace=wrap;html=1;aspect=fixed;verticalAlign=top;align=left;" vertex="1" parent="1">
          <mxGeometry x="414" y="390" width="160" height="160" as="geometry" />
        </mxCell>
        <mxCell id="ET-WqSmqZq0KiV_rPKmN-5" value="&lt;div style=&quot;forced-color-adjust: none; color: rgb(0, 0, 0); font-family: Helvetica; font-size: 12px; font-style: normal; font-variant-ligatures: normal; font-variant-caps: normal; font-weight: 400; letter-spacing: normal; orphans: 2; text-indent: 0px; text-transform: none; widows: 2; word-spacing: 0px; -webkit-text-stroke-width: 0px; white-space: normal; background-color: rgb(251, 251, 251); text-decoration-thickness: initial; text-decoration-style: initial; text-decoration-color: initial;&quot;&gt;&lt;b style=&quot;forced-color-adjust: none;&quot;&gt;&lt;font style=&quot;forced-color-adjust: none; font-size: 15px;&quot;&gt;id&lt;/font&gt;&lt;/b&gt;&lt;span style=&quot;forced-color-adjust: none; font-size: 14px;&quot;&gt;: INT&lt;/span&gt;&lt;/div&gt;&lt;div style=&quot;forced-color-adjust: none; color: rgb(0, 0, 0); font-family: Helvetica; font-size: 12px; font-style: normal; font-variant-ligatures: normal; font-variant-caps: normal; font-weight: 400; letter-spacing: normal; orphans: 2; text-indent: 0px; text-transform: none; widows: 2; word-spacing: 0px; -webkit-text-stroke-width: 0px; white-space: normal; text-decoration-thickness: initial; text-decoration-style: initial; text-decoration-color: initial; background-color: rgb(251, 251, 251);&quot;&gt;&lt;font style=&quot;forced-color-adjust: none;&quot;&gt;&lt;span style=&quot;forced-color-adjust: none; font-size: 15px;&quot;&gt;&lt;b style=&quot;forced-color-adjust: none;&quot;&gt;name&lt;/b&gt;&lt;/span&gt;&lt;span style=&quot;forced-color-adjust: none; font-size: 14px; font-weight: 400;&quot;&gt;: VARCHAR&lt;/span&gt;&lt;/font&gt;&lt;/div&gt;" style="whiteSpace=wrap;html=1;aspect=fixed;verticalAlign=top;align=left;" vertex="1" parent="1">
          <mxGeometry x="520" y="80" width="160" height="160" as="geometry" />
        </mxCell>
        <mxCell id="ET-WqSmqZq0KiV_rPKmN-7" value="&lt;meta charset=&quot;utf-8&quot;&gt;&lt;span style=&quot;color: rgb(204, 0, 102); font-family: Helvetica; font-size: 18px; font-style: normal; font-variant-ligatures: normal; font-variant-caps: normal; font-weight: 700; letter-spacing: normal; orphans: 2; text-align: center; text-indent: 0px; text-transform: none; widows: 2; word-spacing: 0px; -webkit-text-stroke-width: 0px; white-space: normal; background-color: rgb(251, 251, 251); text-decoration-thickness: initial; text-decoration-style: initial; text-decoration-color: initial; display: inline !important; float: none;&quot;&gt;Episodes&amp;nbsp;&lt;/span&gt;" style="rounded=1;whiteSpace=wrap;html=1;fillColor=#d5e8d4;strokeColor=#82b366;fontStyle=1;align=center;" vertex="1" parent="1">
          <mxGeometry x="40" y="40" width="160" height="40" as="geometry" />
        </mxCell>
        <mxCell id="ET-WqSmqZq0KiV_rPKmN-8" value="&lt;span style=&quot;color: rgb(204, 0, 102); font-family: Helvetica; font-size: 18px; font-style: normal; font-variant-ligatures: normal; font-variant-caps: normal; font-weight: 700; letter-spacing: normal; orphans: 2; text-align: center; text-indent: 0px; text-transform: none; widows: 2; word-spacing: 0px; -webkit-text-stroke-width: 0px; white-space: normal; background-color: rgb(251, 251, 251); text-decoration-thickness: initial; text-decoration-style: initial; text-decoration-color: initial; display: inline !important; float: none;&quot;&gt;Colors&lt;/span&gt;" style="rounded=1;whiteSpace=wrap;html=1;fillColor=#d5e8d4;strokeColor=#82b366;" vertex="1" parent="1">
          <mxGeometry x="280" y="40" width="160" height="40" as="geometry" />
        </mxCell>
        <mxCell id="ET-WqSmqZq0KiV_rPKmN-9" value="&lt;span style=&quot;color: rgb(204, 0, 102); font-family: Helvetica; font-size: 18px; font-style: normal; font-variant-ligatures: normal; font-variant-caps: normal; font-weight: 700; letter-spacing: normal; orphans: 2; text-align: center; text-indent: 0px; text-transform: none; widows: 2; word-spacing: 0px; -webkit-text-stroke-width: 0px; white-space: normal; background-color: rgb(251, 251, 251); text-decoration-thickness: initial; text-decoration-style: initial; text-decoration-color: initial; display: inline !important; float: none;&quot;&gt;Features&lt;/span&gt;" style="rounded=1;whiteSpace=wrap;html=1;fillColor=#d5e8d4;strokeColor=#82b366;" vertex="1" parent="1">
          <mxGeometry x="520" y="40" width="160" height="40" as="geometry" />
        </mxCell>
        <mxCell id="ET-WqSmqZq0KiV_rPKmN-10" value="&lt;span style=&quot;color: rgb(204, 0, 102); font-family: Helvetica; font-size: 18px; font-style: normal; font-variant-ligatures: normal; font-variant-caps: normal; font-weight: 700; letter-spacing: normal; orphans: 2; text-align: center; text-indent: 0px; text-transform: none; widows: 2; word-spacing: 0px; -webkit-text-stroke-width: 0px; white-space: normal; background-color: rgb(251, 251, 251); text-decoration-thickness: initial; text-decoration-style: initial; text-decoration-color: initial; display: inline !important; float: none;&quot;&gt;Episode-colors&lt;/span&gt;" style="rounded=1;whiteSpace=wrap;html=1;fillColor=#d5e8d4;strokeColor=#82b366;" vertex="1" parent="1">
          <mxGeometry x="150" y="350" width="160" height="40" as="geometry" />
        </mxCell>
        <mxCell id="ET-WqSmqZq0KiV_rPKmN-16" style="edgeStyle=orthogonalEdgeStyle;rounded=0;orthogonalLoop=1;jettySize=auto;html=1;" edge="1" parent="1" source="ET-WqSmqZq0KiV_rPKmN-11" target="ET-WqSmqZq0KiV_rPKmN-4">
          <mxGeometry relative="1" as="geometry" />
        </mxCell>
        <mxCell id="ET-WqSmqZq0KiV_rPKmN-11" value="&lt;span style=&quot;color: rgb(204, 0, 102); font-family: Helvetica; font-size: 18px; font-style: normal; font-variant-ligatures: normal; font-variant-caps: normal; font-weight: 700; letter-spacing: normal; orphans: 2; text-align: center; text-indent: 0px; text-transform: none; widows: 2; word-spacing: 0px; -webkit-text-stroke-width: 0px; white-space: normal; background-color: rgb(251, 251, 251); text-decoration-thickness: initial; text-decoration-style: initial; text-decoration-color: initial; display: inline !important; float: none;&quot;&gt;Episode-features&amp;nbsp;&lt;/span&gt;" style="rounded=1;whiteSpace=wrap;html=1;fillColor=#d5e8d4;strokeColor=#82b366;fontStyle=1" vertex="1" parent="1">
          <mxGeometry x="414" y="350" width="160" height="40" as="geometry" />
        </mxCell>
        <mxCell id="ET-WqSmqZq0KiV_rPKmN-12" value="&lt;font color=&quot;#6600cc&quot; style=&quot;font-size: 15px;&quot;&gt;&lt;b&gt;PK(id)&lt;/b&gt;&lt;/font&gt;" style="ellipse;shape=cloud;whiteSpace=wrap;html=1;" vertex="1" parent="1">
          <mxGeometry x="150" y="20" width="90" height="40" as="geometry" />
        </mxCell>
        <mxCell id="ET-WqSmqZq0KiV_rPKmN-13" value="&lt;font color=&quot;#6600cc&quot; style=&quot;font-size: 15px;&quot;&gt;&lt;b&gt;PK(id)&lt;/b&gt;&lt;/font&gt;" style="ellipse;shape=cloud;whiteSpace=wrap;html=1;" vertex="1" parent="1">
          <mxGeometry x="390" y="20" width="90" height="40" as="geometry" />
        </mxCell>
        <mxCell id="ET-WqSmqZq0KiV_rPKmN-14" value="&lt;font color=&quot;#6600cc&quot; style=&quot;font-size: 15px;&quot;&gt;&lt;b&gt;PK(id)&lt;/b&gt;&lt;/font&gt;" style="ellipse;shape=cloud;whiteSpace=wrap;html=1;" vertex="1" parent="1">
          <mxGeometry x="630" y="20" width="90" height="40" as="geometry" />
        </mxCell>
        <mxCell id="ET-WqSmqZq0KiV_rPKmN-17" value="&lt;font color=&quot;#330066&quot; face=&quot;Comic Sans MS&quot;&gt;&lt;b style=&quot;background-color: rgb(153, 230, 255);&quot;&gt;Contains info about each episode&lt;/b&gt;&lt;/font&gt;" style="text;html=1;align=center;verticalAlign=middle;whiteSpace=wrap;rounded=0;" vertex="1" parent="1">
          <mxGeometry x="40" y="240" width="160" height="30" as="geometry" />
        </mxCell>
        <mxCell id="ET-WqSmqZq0KiV_rPKmN-18" value="&lt;font color=&quot;#330066&quot; face=&quot;Comic Sans MS&quot;&gt;&lt;b style=&quot;background-color: rgb(153, 230, 255);&quot;&gt;Contains info about each color used in episodes&lt;/b&gt;&lt;/font&gt;" style="text;html=1;align=center;verticalAlign=middle;whiteSpace=wrap;rounded=0;" vertex="1" parent="1">
          <mxGeometry x="280" y="190" width="160" height="30" as="geometry" />
        </mxCell>
        <mxCell id="ET-WqSmqZq0KiV_rPKmN-19" value="&lt;font color=&quot;#330066&quot; face=&quot;Comic Sans MS&quot;&gt;&lt;b style=&quot;background-color: rgb(153, 230, 255);&quot;&gt;Contains info about various features that appear in episodes&lt;/b&gt;&lt;/font&gt;" style="text;html=1;align=center;verticalAlign=middle;whiteSpace=wrap;rounded=0;" vertex="1" parent="1">
          <mxGeometry x="520" y="200" width="160" height="30" as="geometry" />
        </mxCell>
        <mxCell id="ET-WqSmqZq0KiV_rPKmN-20" value="&lt;font face=&quot;Comic Sans MS&quot; color=&quot;#330066&quot;&gt;&lt;span style=&quot;background-color: rgb(153, 230, 255);&quot;&gt;&lt;b&gt;Join table to establish many-to-many relationships between &quot;Episodes&quot; and &quot;Colors&quot;&lt;/b&gt;&lt;/span&gt;&lt;/font&gt;" style="text;html=1;align=center;verticalAlign=middle;whiteSpace=wrap;rounded=0;" vertex="1" parent="1">
          <mxGeometry x="150" y="540" width="160" height="30" as="geometry" />
        </mxCell>
        <mxCell id="ET-WqSmqZq0KiV_rPKmN-22" value="&lt;font face=&quot;Comic Sans MS&quot; color=&quot;#330066&quot;&gt;&lt;span style=&quot;background-color: rgb(153, 230, 255);&quot;&gt;&lt;b&gt;Join table to establish many-to-many relationships between &quot;Episodes&quot; and &quot;Features&quot;&lt;/b&gt;&lt;/span&gt;&lt;/font&gt;" style="text;html=1;align=center;verticalAlign=middle;whiteSpace=wrap;rounded=0;" vertex="1" parent="1">
          <mxGeometry x="414" y="540" width="160" height="30" as="geometry" />
        </mxCell>
        <mxCell id="ET-WqSmqZq0KiV_rPKmN-23" value="&lt;font color=&quot;#6600cc&quot; style=&quot;font-size: 15px;&quot;&gt;&lt;b&gt;PK(episode_id,&lt;/b&gt;&lt;/font&gt;&lt;div&gt;&lt;font color=&quot;#6600cc&quot; style=&quot;font-size: 15px;&quot;&gt;&lt;b&gt;color_id)&lt;/b&gt;&lt;/font&gt;&lt;/div&gt;" style="ellipse;shape=cloud;whiteSpace=wrap;html=1;" vertex="1" parent="1">
          <mxGeometry x="240" y="280" width="160" height="90" as="geometry" />
        </mxCell>
        <mxCell id="ET-WqSmqZq0KiV_rPKmN-26" value="&lt;font color=&quot;#6600cc&quot; style=&quot;font-size: 15px;&quot;&gt;&lt;b&gt;PK(episode_id,&lt;/b&gt;&lt;/font&gt;&lt;div&gt;&lt;font color=&quot;#6600cc&quot; style=&quot;font-size: 15px;&quot;&gt;&lt;b&gt;feature_id)&lt;/b&gt;&lt;/font&gt;&lt;/div&gt;" style="ellipse;shape=cloud;whiteSpace=wrap;html=1;" vertex="1" parent="1">
          <mxGeometry x="520" y="290" width="160" height="90" as="geometry" />
        </mxCell>
        <mxCell id="ET-WqSmqZq0KiV_rPKmN-32" value="" style="edgeStyle=segmentEdgeStyle;endArrow=classic;html=1;curved=0;rounded=0;endSize=8;startSize=8;sourcePerimeterSpacing=0;targetPerimeterSpacing=0;exitX=0.011;exitY=0.099;exitDx=0;exitDy=0;exitPerimeter=0;entryX=-0.015;entryY=0.102;entryDx=0;entryDy=0;entryPerimeter=0;fontColor=#FF0000;labelBorderColor=#FF0000;strokeColor=#FF0000;" edge="1" parent="1" source="ET-WqSmqZq0KiV_rPKmN-2" target="ET-WqSmqZq0KiV_rPKmN-1">
          <mxGeometry width="100" relative="1" as="geometry">
            <mxPoint x="90" y="380" as="sourcePoint" />
            <mxPoint x="20" y="290" as="targetPoint" />
            <Array as="points">
              <mxPoint x="152" y="402" />
              <mxPoint x="10" y="402" />
              <mxPoint x="10" y="96" />
            </Array>
          </mxGeometry>
        </mxCell>
        <mxCell id="ET-WqSmqZq0KiV_rPKmN-34" value="" style="edgeStyle=segmentEdgeStyle;endArrow=classic;html=1;curved=0;rounded=0;endSize=8;startSize=8;sourcePerimeterSpacing=0;targetPerimeterSpacing=0;entryX=-0.022;entryY=0.117;entryDx=0;entryDy=0;entryPerimeter=0;exitX=0;exitY=0.25;exitDx=0;exitDy=0;strokeColor=#FF0000;" edge="1" parent="1" source="ET-WqSmqZq0KiV_rPKmN-2" target="ET-WqSmqZq0KiV_rPKmN-3">
          <mxGeometry width="100" relative="1" as="geometry">
            <mxPoint x="90" y="410" as="sourcePoint" />
            <mxPoint x="190" y="450" as="targetPoint" />
            <Array as="points">
              <mxPoint x="150" y="420" />
              <mxPoint x="140" y="420" />
              <mxPoint x="140" y="280" />
              <mxPoint x="250" y="280" />
              <mxPoint x="250" y="99" />
            </Array>
          </mxGeometry>
        </mxCell>
        <mxCell id="ET-WqSmqZq0KiV_rPKmN-35" value="" style="edgeStyle=segmentEdgeStyle;endArrow=classic;html=1;curved=0;rounded=0;endSize=8;startSize=8;sourcePerimeterSpacing=0;targetPerimeterSpacing=0;entryX=1.022;entryY=0.102;entryDx=0;entryDy=0;entryPerimeter=0;strokeColor=#00CC00;" edge="1" parent="1" target="ET-WqSmqZq0KiV_rPKmN-1">
          <mxGeometry width="100" relative="1" as="geometry">
            <mxPoint x="410" y="410" as="sourcePoint" />
            <mxPoint x="440" y="430" as="targetPoint" />
            <Array as="points">
              <mxPoint x="400" y="410" />
              <mxPoint x="400" y="250" />
              <mxPoint x="220" y="250" />
              <mxPoint x="220" y="96" />
            </Array>
          </mxGeometry>
        </mxCell>
        <mxCell id="ET-WqSmqZq0KiV_rPKmN-37" value="" style="edgeStyle=segmentEdgeStyle;endArrow=classic;html=1;curved=0;rounded=0;endSize=8;startSize=8;sourcePerimeterSpacing=0;targetPerimeterSpacing=0;entryX=1.022;entryY=0.065;entryDx=0;entryDy=0;entryPerimeter=0;strokeColor=#00CC00;" edge="1" parent="1" source="ET-WqSmqZq0KiV_rPKmN-4" target="ET-WqSmqZq0KiV_rPKmN-5">
          <mxGeometry width="100" relative="1" as="geometry">
            <mxPoint x="540" y="410" as="sourcePoint" />
            <mxPoint x="710" y="100" as="targetPoint" />
            <Array as="points">
              <mxPoint x="730" y="430" />
              <mxPoint x="730" y="90" />
            </Array>
          </mxGeometry>
        </mxCell>
      </root>
    </mxGraphModel>
  </diagram>
</mxfile>
